<svg width="350" height="8" viewBox="0 0 350 8" fill="none" xmlns="http://www.w3.org/2000/svg">
<path d="M10.674 2.97531L10.866 3.43695L10.8661 3.4369L10.674 2.97531ZM30.0219 2.97531L30.2143 2.51378L30.2141 2.51371L30.0219 2.97531ZM49.3517 2.97531L49.1597 2.51366L49.1594 2.51378L49.3517 2.97531ZM68.6815 2.97531L68.8739 2.51383L68.8735 2.51366L68.6815 2.97531ZM88.0294 2.97531L87.8374 2.51366L87.837 2.51383L88.0294 2.97531ZM107.359 2.97531L107.552 2.51378L107.551 2.51366L107.359 2.97531ZM126.689 2.97531L126.497 2.51366L126.497 2.51378L126.689 2.97531ZM146.019 2.97531L146.211 2.51377L146.211 2.51366L146.019 2.97531ZM165.352 2.97531L165.16 2.51366L165.159 2.51377L165.352 2.97531ZM184.682 2.97531L184.874 2.51378L184.874 2.51366L184.682 2.97531ZM204.011 2.97531L203.819 2.51366L203.819 2.51378L204.011 2.97531ZM223.341 2.97531L223.533 2.51377L223.533 2.51366L223.341 2.97531ZM242.674 2.97531L242.482 2.51366L242.482 2.51377L242.674 2.97531ZM262.004 2.97531L262.196 2.51378L262.196 2.51366L262.004 2.97531ZM281.334 2.97531L281.142 2.51365L281.141 2.51378L281.334 2.97531ZM300.666 2.97531L300.859 2.51378L300.858 2.51365L300.666 2.97531ZM319.996 2.97531L319.804 2.51366L319.804 2.51378L319.996 2.97531ZM339.326 2.97531L339.518 2.51366V2.51366L339.326 2.97531ZM1.19206 7.46164L10.866 3.43695L10.4819 2.51366L0.807941 6.53836L1.19206 7.46164ZM10.8661 3.4369C17.0696 0.854366 23.6263 0.854366 29.8298 3.4369L30.2141 2.51371C23.7647 -0.171236 16.9312 -0.171236 10.4818 2.51371L10.8661 3.4369ZM29.8296 3.43683C36.2729 6.12217 43.1007 6.12217 49.5441 3.43683L49.1594 2.51378C42.9622 5.09652 36.4114 5.09652 30.2143 2.51378L29.8296 3.43683ZM49.5438 3.43695C55.7415 0.858687 62.2917 0.858687 68.4895 3.43695L68.8735 2.51366C62.4299 -0.166881 55.6033 -0.166881 49.1597 2.51366L49.5438 3.43695ZM68.489 3.43678C74.9382 6.12629 81.7727 6.12629 88.2219 3.43678L87.837 2.51383C81.6341 5.10061 75.0768 5.10061 68.8739 2.51383L68.489 3.43678ZM88.2215 3.43695C94.4192 0.858687 100.969 0.858687 107.167 3.43695L107.551 2.51366C101.108 -0.166881 94.281 -0.166881 87.8374 2.51366L88.2215 3.43695ZM107.167 3.43683C113.61 6.12217 120.438 6.12217 126.881 3.43683L126.497 2.51378C120.3 5.09652 113.749 5.09652 107.552 2.51378L107.167 3.43683ZM126.881 3.43695C133.079 0.858687 139.629 0.858687 145.827 3.43695L146.211 2.51366C139.767 -0.166881 132.941 -0.166881 126.497 2.51366L126.881 3.43695ZM145.827 3.43684C152.271 6.12207 159.1 6.12207 165.544 3.43684L165.159 2.51377C158.961 5.09643 152.409 5.09643 146.211 2.51377L145.827 3.43684ZM165.544 3.43695C171.742 0.858687 178.292 0.858687 184.489 3.43695L184.874 2.51366C178.43 -0.166881 171.603 -0.166881 165.16 2.51366L165.544 3.43695ZM184.489 3.43683C190.933 6.12217 197.76 6.12217 204.204 3.43683L203.819 2.51378C197.622 5.09652 191.071 5.09652 184.874 2.51378L184.489 3.43683ZM204.203 3.43695C210.401 0.858687 216.951 0.858687 223.149 3.43695L223.533 2.51366C217.09 -0.166881 210.263 -0.166881 203.819 2.51366L204.203 3.43695ZM223.149 3.43684C229.593 6.12207 236.422 6.12207 242.866 3.43684L242.482 2.51377C236.283 5.09643 229.732 5.09643 223.533 2.51377L223.149 3.43684ZM242.866 3.43695C249.064 0.858687 255.614 0.858687 261.812 3.43695L262.196 2.51366C255.752 -0.166881 248.926 -0.166881 242.482 2.51366L242.866 3.43695ZM261.811 3.43683C268.255 6.12217 275.083 6.12217 281.526 3.43683L281.141 2.51378C274.944 5.09652 268.393 5.09652 262.196 2.51378L261.811 3.43683ZM281.526 3.43696C287.724 0.85854 294.276 0.85854 300.474 3.43696L300.858 2.51365C294.414 -0.167024 287.586 -0.167024 281.142 2.51365L281.526 3.43696ZM300.474 3.43683C306.917 6.12217 313.745 6.12217 320.189 3.43683L319.804 2.51378C313.607 5.09652 307.056 5.09652 300.859 2.51378L300.474 3.43683ZM320.188 3.43695C326.386 0.858687 332.936 0.858687 339.134 3.43695L339.518 2.51366C333.074 -0.166881 326.248 -0.166881 319.804 2.51366L320.188 3.43695ZM339.134 3.43695L348.808 7.46164L349.192 6.53836L339.518 2.51366L339.134 3.43695Z" fill="#F4F4F4"/>
</svg>
