<svg width="150" height="150" viewBox="0 0 152 152" fill="none" xmlns="http://www.w3.org/2000/svg">
<path d="M80.9977 39.8702L94.4116 7.29158L89.7346 42.211L89.6097 43.1441L90.1811 42.3959L111.564 14.4003L98.0137 46.9174L97.6516 47.7863L98.3971 47.2116L126.298 25.7021L104.788 53.6027L104.213 54.3481L105.082 53.9861L137.599 40.4357L109.604 61.8186L108.856 62.3901L109.789 62.2651L144.708 57.5882L112.13 71.002L111.259 71.3604L112.193 71.4811L147.129 75.9978L112.193 80.5191L111.259 80.6399L112.13 80.9982L144.708 94.4121L109.789 89.7351L108.856 89.6102L109.604 90.1816L137.599 111.565L105.082 98.0142L104.213 97.6521L104.788 98.3976L126.298 126.298L98.3971 104.789L97.6516 104.214L98.0137 105.083L111.564 137.6L90.1811 109.604L89.6097 108.856L89.7346 109.789L94.4116 144.709L80.9977 112.13L80.6394 111.26L80.5186 112.193L75.9973 147.13L71.4807 112.193L71.36 111.26L71.0015 112.13L57.5877 144.709L62.2646 109.789L62.3896 108.856L61.8181 109.604L40.4352 137.6L53.9856 105.083L54.3477 104.214L53.6022 104.789L25.7017 126.298L47.2111 98.3976L47.7858 97.6521L46.9169 98.0142L14.3998 111.565L42.3954 90.1816L43.1436 89.6102L42.2105 89.7351L7.2911 94.4121L39.8697 80.9982L40.7399 80.6399L39.8066 80.5191L4.86979 75.9978L39.8066 71.4811L40.7402 71.3604L39.8697 71.002L7.2911 57.5882L42.2105 62.2651L43.1436 62.3901L42.3954 61.8186L14.3998 40.4357L46.9169 53.9861L47.7858 54.3481L47.2111 53.6027L25.7017 25.7021L53.6022 47.2116L54.3477 47.7863L53.9856 46.9174L40.4352 14.4003L61.8181 42.3959L62.3896 43.1441L62.2646 42.211L57.5877 7.29158L71.0015 39.8702L71.36 40.7407L71.4807 39.807L75.9973 4.87028L80.5186 39.8071L80.6394 40.7404L80.9977 39.8702Z" fill="#F4F4F4" stroke="black" stroke-width="0.5" stroke-miterlimit="10"/>
</svg>
