<?xml version="1.0" encoding="utf-8"?>
<!-- Generator: Adobe Illustrator 26.2.1, SVG Export Plug-In . SVG Version: 6.00 Build 0)  -->
<svg version="1.1" id="Layer_1" xmlns="http://www.w3.org/2000/svg" xmlns:xlink="http://www.w3.org/1999/xlink" x="0px" y="0px"
	 viewBox="0 0 536.5 513.8" style="enable-background:new 0 0 536.5 513.8;" xml:space="preserve">
<style type="text/css">
	.st0{fill:none;stroke:#FFFFFF;stroke-width:6;stroke-miterlimit:10;}
	.st1{fill:none;stroke:#FFFFFF;stroke-width:10;stroke-miterlimit:10;}
	.st2{fill:none;stroke:#FFFFFF;stroke-width:10.2172;stroke-miterlimit:10;}
	.st3{fill:#FFFFFF;}
</style>
<g>
	<path class="st0" d="M533.5,256.9c0,27-33.5,48.3-41.4,72.7c-8.2,25.2,6.1,62.2-9.2,83.2c-15.4,21.2-55.1,19-76.3,34.4
		c-21,15.3-31,53.8-56.3,62c-24.4,7.9-55-17.1-82-17.1c-27,0-57.6,25-82,17.1c-25.2-8.2-35.3-46.7-56.3-62
		c-21.2-15.4-60.9-13.2-76.3-34.4c-15.3-21-1-58-9.2-83.2c-7.9-24.4-41.4-45.7-41.4-72.7c0-27,33.5-48.3,41.4-72.7
		c8.2-25.2-6.1-62.2,9.2-83.2c15.4-21.2,55.1-19,76.3-34.4c21-15.3,31-53.8,56.3-62c24.4-7.9,55,17.1,82,17.1c27,0,57.6-25,82-17.1
		c25.2,8.2,35.3,46.7,56.3,62c21.2,15.4,60.9,13.2,76.3,34.4c15.3,21,1,58,9.2,83.2C500,208.5,533.5,229.9,533.5,256.9z"/>
</g>
<g>
	<path class="st1" d="M-498.6-55.2c0,27-33.5,48.3-41.4,72.7c-8.2,25.2,6.1,62.2-9.2,83.2c-15.4,21.2-55.1,19-76.3,34.4
		c-21,15.3-31,53.8-56.3,62c-24.4,7.9-55-17.1-82-17.1c-27,0-57.6,25-82,17.1c-25.2-8.2-35.3-46.7-56.3-62
		c-21.2-15.4-60.9-13.2-76.3-34.4c-15.3-21-1-58-9.2-83.2c-7.9-24.4-41.4-45.7-41.4-72.7c0-27,33.5-48.3,41.4-72.7
		c8.2-25.2-6.1-62.2,9.2-83.2c15.4-21.2,55.1-19,76.3-34.4c21-15.3,31-53.8,56.3-62c24.4-7.9,55,17.1,82,17.1c27,0,57.6-25,82-17.1
		c25.2,8.2,35.3,46.7,56.3,62c21.2,15.4,60.9,13.2,76.3,34.4c15.3,21,1,58,9.2,83.2C-532.1-103.5-498.6-82.2-498.6-55.2z"/>
</g>
<circle class="st2" cx="-763.7" cy="-55.2" r="140.2"/>
<circle class="st0" cx="186.1" cy="175.9" r="17.3"/>
<circle class="st0" cx="350.6" cy="175.9" r="17.3"/>
<path class="st3" d="M407.2,256.9c0,76.5-62.3,138.8-138.8,138.8c-76.5,0-138.8-62.3-138.8-138.8h-6c0,79.9,65,144.8,144.8,144.8
	c79.9,0,144.8-65,144.8-144.8H407.2z"/>
<g>
	<path class="st0" d="M2061.1,868.2c0,27-33.5,48.3-41.4,72.7c-8.2,25.2,6.1,62.2-9.2,83.2c-15.4,21.2-55.1,19-76.3,34.4
		c-21,15.3-31,53.8-56.3,62c-24.4,7.9-55-17.1-82-17.1c-27,0-57.6,25-82,17.1c-25.2-8.2-35.3-46.7-56.3-62
		c-21.2-15.4-60.9-13.2-76.3-34.4c-15.3-21-1-58-9.2-83.2c-7.9-24.4-41.4-45.7-41.4-72.7c0-27,33.5-48.3,41.4-72.7
		c8.2-25.2-6.1-62.2,9.2-83.2c15.4-21.2,55.1-19,76.3-34.4c21-15.3,31-53.8,56.3-62c24.4-7.9,55,17.1,82,17.1c27,0,57.6-25,82-17.1
		c25.2,8.2,35.3,46.7,56.3,62c21.2,15.4,60.9,13.2,76.3,34.4c15.3,21,1,58,9.2,83.2C2027.6,819.9,2061.1,841.2,2061.1,868.2z"/>
</g>
<circle class="st0" cx="1713.7" cy="787.2" r="17.3"/>
<circle class="st0" cx="1878.2" cy="787.2" r="17.3"/>
<path class="st3" d="M1934.8,868.2c0,76.5-62.3,138.8-138.8,138.8c-76.5,0-138.8-62.3-138.8-138.8h-6c0,79.9,65,144.8,144.8,144.8
	c79.9,0,144.8-65,144.8-144.8H1934.8z"/>
</svg>
